<?xml version="1.0" encoding="UTF-8" standalone="no"?>
<svg width="35px" height="32px" viewBox="0 0 35 32" version="1.1" xmlns="http://www.w3.org/2000/svg" xmlns:xlink="http://www.w3.org/1999/xlink">
    <!-- Generator: Sketch 46.2 (44496) - http://www.bohemiancoding.com/sketch -->
    <title>12 horse with slow walking pose</title>
    <desc>Created with Sketch.</desc>
    <defs></defs>
    <g id="Page-1" stroke="none" stroke-width="1" fill="none" fill-rule="evenodd">
        <g id="12-horse-with-slow-walking-pose" fill-rule="nonzero" fill="#C5AB89">
            <path d="M32.95,0.486 L32.783,2.159 L34.122,0.765 L33.62,3.108 C34.345,3.89 34.289,7.012 34.289,7.012 C35.071,10.916 33.396,10.972 33.396,10.972 C31.834,11.027 31.834,9.131 31.834,9.131 C30.495,8.517 30.105,7.068 30.105,7.068 C30.05,9.189 28.71,11.587 28.71,11.587 C28.041,13.038 28.988,13.762 28.988,13.762 C30.103,16.161 28.041,18.783 28.041,18.783 C28.71,19.174 29.992,21.181 29.992,21.181 C31.554,22.297 30.996,24.194 30.996,24.194 C30.438,27.094 27.872,28.879 27.872,28.879 C26.757,30.832 26.59,28.879 26.59,28.879 C26.646,26.927 28.04,27.541 28.04,27.541 C27.984,27.039 28.765,26.37 28.765,26.37 C30.049,24.697 29.322,22.799 29.322,22.799 C27.984,21.404 25.529,20.233 25.529,20.233 C25.585,21.627 23.967,25.923 23.967,25.923 C22.906,27.931 23.633,29.717 23.633,29.717 C24.135,30.051 24.582,31.167 24.582,31.167 C24.694,32.171 23.019,31.78 23.019,31.78 C21.736,31.78 22.628,29.828 22.628,29.828 C21.401,29.437 22.238,27.764 22.238,27.764 C23.131,24.806 22.962,19.731 22.962,19.731 C20.564,21.181 14.093,18.951 14.093,18.951 C14.093,20.514 13.146,23.915 13.146,23.915 C12.922,30.106 16.269,30.609 16.269,30.609 C17.161,31.557 15.545,31.613 15.545,31.613 C13.927,31.613 13.982,30.331 13.982,30.331 C12.867,30.331 11.918,26.314 11.918,26.314 C10.523,25.032 11.194,22.075 11.194,22.075 C10.916,20.011 9.353,19.9 9.353,19.9 C8.964,20.903 4.946,25.199 4.946,25.199 C3.607,27.822 4.611,30.776 4.611,30.776 C4.946,32.059 3.383,31.391 3.383,31.391 C2.045,30.443 3.105,29.94 3.105,29.94 C3.329,29.605 2.881,28.881 2.881,28.881 C2.212,27.543 3.941,24.53 3.941,24.53 C4.165,21.239 5.28,21.35 5.28,21.35 C6.785,20.012 6.227,18.171 6.227,18.171 C5.112,14.769 6.227,12.592 6.227,12.592 C4.219,12.983 4.331,15.772 4.331,15.772 C3.271,22.633 0.371,21.518 0.371,21.518 C2.435,20.737 1.599,16.776 1.599,16.776 C1.766,10.026 6.954,11.476 6.954,11.476 C8.627,9.021 13.48,9.803 13.48,9.803 C14.597,10.36 18.89,10.585 18.89,10.585 C22.404,10.083 24.803,5.509 24.803,5.509 C28.317,-0.404 31.72,2.106 31.72,2.106 L32.95,0.486 Z" id="Shape"></path>
        </g>
    </g>
</svg>