<?xml version="1.0" encoding="UTF-8" standalone="no"?>
<svg width="31px" height="31px" viewBox="0 0 31 31" version="1.1" xmlns="http://www.w3.org/2000/svg" xmlns:xlink="http://www.w3.org/1999/xlink">
    <!-- Generator: Sketch 46.2 (44496) - http://www.bohemiancoding.com/sketch -->
    <title>71 quit horse with jockey</title>
    <desc>Created with Sketch.</desc>
    <defs></defs>
    <g id="Page-1" stroke="none" stroke-width="1" fill="none" fill-rule="evenodd">
        <g id="71-quit-horse-with-jockey" fill-rule="nonzero" fill="#C5AB89">
            <path d="M26.391,11.454 C26.391,11.454 23.65,10.499 20.649,11.014 C21.697,10.089 22.898,8.922 23.052,8.306 C23.052,8.306 23.658,6.767 21.84,5.509 C21.84,5.509 18.248,2.898 16.433,2.572 C15.481,2.401 13.31,2.339 12.611,2.479 C12.611,2.479 13.73,1.453 11.959,0.614 C11.959,0.614 9.263,-0.375 8.603,2.199 C8.487,2.651 8.416,3.97 8.836,4.436 L9.489,3.97 C9.489,3.97 10.235,5.275 11.493,5.088 C11.493,5.088 11.681,7.305 11.959,7.792 C12.132,8.096 12.171,8.882 12.005,9.19 C11.964,9.267 11.883,9.348 11.789,9.431 C10.206,8.219 6.959,5.862 5.118,5.433 L3.716,3.551 L3.511,4.885 C3.511,4.885 2.656,3.414 2.69,3.551 C2.724,3.688 2.793,5.33 2.793,5.33 C2.793,5.33 1.835,7.484 1.528,7.861 C1.528,7.861 -0.217,10.084 0.844,11.007 C0.844,11.007 1.554,11.433 2.189,10.808 C2.947,10.978 4.244,11.191 6.001,11.244 C6.542,12.63 7.39,14.426 8.334,15.009 C8.334,15.009 7.958,17.95 9.839,19.319 C9.839,19.319 10.249,22.979 10.66,24.86 C10.66,24.86 11.07,28.417 10.01,28.964 C10.01,28.964 8.949,29.546 9.087,29.956 C9.087,29.956 9.19,30.093 10.318,30.093 C10.318,30.093 11.241,30.265 11.036,29.341 C11.036,29.341 10.933,28.726 11.412,28.383 C11.412,28.383 11.72,27.425 11.617,25.818 C11.617,25.818 11.514,24.142 11.925,24.552 C11.925,24.552 12.507,25.921 12.507,27.323 C12.507,27.323 12.302,28.588 11.857,28.827 C11.857,28.827 10.899,29.717 11.652,29.751 L13.328,29.751 C13.328,29.751 13.568,29.374 13.123,28.69 C13.123,28.69 13.055,28.177 13.328,28.075 C13.328,28.075 13.533,26.673 13.02,25.168 C13.02,25.168 11.789,19.559 13.362,19.251 C13.362,19.251 18.732,19.935 20.716,18.226 C20.716,18.226 22.016,17.644 22.529,18.259 C22.529,18.259 23.453,21.2 24.239,22.706 C24.239,22.706 24.752,26.468 24.342,27.46 C23.931,28.451 23.384,29.273 22.837,29.512 C22.837,29.512 22.153,30.161 22.803,30.161 L24.445,30.161 C24.445,30.161 24.992,29.922 24.582,29.306 C24.582,29.306 24.377,28.896 24.89,28.52 C24.89,28.52 25.574,28.417 25.539,26.296 C25.539,26.296 26.36,23.458 25.847,22.295 C25.847,22.295 25.573,21.816 26.018,21.884 C26.018,21.884 27.044,24.039 27.694,24.655 C27.694,24.655 27.934,27.87 28.105,28.553 C28.105,28.553 28.242,28.963 28.002,29.272 C28.002,29.272 26.702,30.333 27.455,30.571 L28.823,30.571 C28.823,30.571 29.644,30.469 29.096,29.204 C29.096,29.204 29.028,28.622 29.335,28.28 C29.335,28.28 29.404,26.98 29.062,26.227 C29.062,26.227 29.507,23.354 28.036,21.782 C28.036,21.782 26.599,20.687 27.352,17.883 C27.352,17.883 29.001,14.917 27.625,13.197 C27.488,13.026 27.625,13.026 27.625,13.026 C27.625,13.026 28.617,13.505 28.822,15.864 C28.822,15.864 27.727,20.585 30.019,22.431 C30.019,22.431 29.711,19.49 30.361,18.293 C30.358,18.295 31.658,12.787 26.391,11.454 Z M16.106,9.657 L16.246,7.886 C16.246,7.886 18.111,7.98 17.132,9.284 C17.132,9.284 16.116,10.387 15.41,11.475 C14.826,11.371 14.245,11.194 13.722,10.917 C14.684,10.784 15.822,10.456 16.106,9.657 Z M13.775,7.21 L14.498,7.304 C14.498,7.304 14.626,8.325 14.544,8.562 C14.441,8.864 13.542,9.075 13.542,9.075 C13.822,8.795 13.775,7.21 13.775,7.21 Z M2.767,10.412 C3.225,10.367 4.118,10.185 4.467,9.435 C4.467,9.435 4.98,8.991 5.391,9.503 C5.391,9.503 5.545,10.02 5.807,10.735 C4.51,10.686 3.486,10.545 2.767,10.412 Z" id="Shape"></path>
        </g>
    </g>
</svg>