<?xml version="1.0" encoding="UTF-8" standalone="no"?>
<svg width="31px" height="31px" viewBox="0 0 31 31" version="1.1" xmlns="http://www.w3.org/2000/svg" xmlns:xlink="http://www.w3.org/1999/xlink">
    <!-- Generator: Sketch 46.2 (44496) - http://www.bohemiancoding.com/sketch -->
    <title>72 walking horse with jockey</title>
    <desc>Created with Sketch.</desc>
    <defs></defs>
    <g id="Page-1" stroke="none" stroke-width="1" fill="none" fill-rule="evenodd">
        <g id="72-walking-horse-with-jockey" fill-rule="nonzero" fill="#C5AB89">
            <path d="M30.317,9.133 C30.317,9.133 30.366,6.389 29.729,5.701 L30.17,3.641 L28.993,4.867 L29.14,3.395 L28.06,4.817 C28.06,4.817 25.068,2.611 21.979,7.809 C21.979,7.809 21.687,8.365 21.163,9.085 C21.037,8.983 20.929,8.884 20.879,8.79 C20.713,8.481 20.752,7.695 20.925,7.392 C21.203,6.905 21.391,4.688 21.391,4.688 C22.649,4.875 23.395,3.57 23.395,3.57 L24.048,4.036 C24.467,3.57 24.397,2.251 24.281,1.799 C23.621,-0.775 20.925,0.214 20.925,0.214 C19.154,1.053 20.273,2.079 20.273,2.079 C19.574,1.938 17.403,2.001 16.451,2.172 C14.636,2.497 11.044,5.109 11.044,5.109 C9.226,6.367 9.832,7.906 9.832,7.906 C10.112,9.024 13.841,11.961 13.841,11.961 C13.852,11.975 13.856,11.991 13.867,12.005 C13.096,11.901 12.379,11.762 12.025,11.586 C12.025,11.586 7.759,10.899 6.288,13.058 C6.288,13.058 1.727,11.783 1.58,17.717 C1.58,17.717 2.315,21.199 0.501,21.886 C0.501,21.886 3.05,22.866 3.982,16.834 C3.982,16.834 3.884,14.382 5.649,14.038 C5.649,14.038 4.669,15.952 5.649,18.943 C5.649,18.943 6.14,20.561 4.816,21.738 C4.816,21.738 3.836,21.64 3.639,24.534 C3.639,24.534 2.118,27.182 2.707,28.358 C2.707,28.358 3.1,28.995 2.904,29.29 C2.904,29.29 1.972,29.732 3.149,30.565 C3.149,30.565 4.523,31.153 4.228,30.025 C4.228,30.025 3.345,27.427 4.522,25.122 C4.522,25.122 8.054,21.345 8.397,20.463 C8.397,20.463 9.771,20.561 10.015,22.376 C10.015,22.376 9.426,24.976 10.652,26.103 C10.652,26.103 11.486,29.634 12.467,29.634 C12.467,29.634 12.419,30.761 13.841,30.761 C13.841,30.761 15.262,30.712 14.478,29.878 C14.478,29.878 11.536,29.437 11.732,23.993 C11.732,23.993 12.565,21.003 12.565,19.63 C12.565,19.63 18.253,21.591 20.362,20.316 C20.362,20.316 20.51,24.778 19.725,27.379 C19.725,27.379 18.989,28.85 20.068,29.193 C20.068,29.193 19.284,30.909 20.412,30.909 C20.412,30.909 21.884,31.253 21.786,30.37 C21.786,30.37 21.393,29.39 20.952,29.096 C20.952,29.096 20.314,27.526 21.246,25.76 C21.246,25.76 22.669,21.983 22.62,20.758 C22.62,20.758 24.778,21.787 25.954,23.014 C25.954,23.014 26.593,24.682 25.464,26.154 C25.464,26.154 24.777,26.743 24.826,27.184 C24.826,27.184 23.6,26.645 23.551,28.36 C23.551,28.36 23.698,30.078 24.678,28.36 C24.678,28.36 26.933,26.792 27.424,24.241 C27.424,24.241 27.914,22.575 26.541,21.593 C26.541,21.593 25.414,19.828 24.825,19.485 C24.825,19.485 26.638,17.18 25.658,15.072 C25.658,15.072 24.825,14.435 25.413,13.159 C25.413,13.159 26.015,12.071 26.375,10.771 C26.772,10.739 27.186,10.696 27.61,10.644 C27.771,10.778 27.947,10.903 28.159,10.999 C28.159,10.999 28.159,12.666 29.532,12.618 C29.532,12.615 31.004,12.565 30.317,9.133 Z M18.385,6.903 L19.108,6.809 C19.108,6.809 19.062,8.394 19.341,8.673 C19.341,8.673 18.442,8.462 18.339,8.16 C18.257,7.925 18.385,6.903 18.385,6.903 Z M17.946,11.927 C17.385,10.656 15.752,8.884 15.752,8.884 C14.773,7.579 16.638,7.486 16.638,7.486 L16.778,9.257 C17.136,10.266 18.857,10.525 19.863,10.588 C19.309,11.119 18.665,11.606 17.946,11.927 Z M26.639,9.183 C26.639,9.183 26.774,9.683 27.163,10.189 C26.936,10.212 26.716,10.233 26.497,10.252 C26.572,9.896 26.63,9.536 26.639,9.183 Z" id="Shape"></path>
        </g>
    </g>
</svg>